<?xml version="1.0" standalone="no"?>
<!DOCTYPE svg PUBLIC "-//W3C//DTD SVG 20010904//EN"
 "http://www.w3.org/TR/2001/REC-SVG-20010904/DTD/svg10.dtd">
<svg version="1.0" xmlns="http://www.w3.org/2000/svg"
 width="64px" height="64px" viewBox="0 0 2000.000000 2000.000000"
 preserveAspectRatio="xMidYMid meet">

<g transform="translate(0.000000,2000.000000) scale(0.100000,-0.100000)"
fill=" #2D71F8" stroke="none">
<path d="M5025 13988 c-5 -15 -1355 -6970 -1355 -6980 0 -5 314 -8 699 -8
l698 0 25 128 c14 70 189 969 388 1997 200 1029 366 1873 369 1877 3 3 330
-852 726 -1900 395 -1049 730 -1935 743 -1969 l24 -63 473 0 c441 0 473 1 480
18 3 9 337 890 742 1957 404 1067 739 1947 744 1955 4 8 9 11 9 7 0 -4 173
-905 385 -2002 212 -1097 385 -1996 385 -1999 0 -3 318 -6 706 -6 667 0 705 1
700 18 -5 17 -1356 6967 -1356 6977 0 3 -262 5 -582 5 l-583 0 -780 -2053
c-940 -2475 -846 -2232 -856 -2216 -4 8 -367 964 -807 2124 -440 1161 -804
2118 -807 2128 -7 16 -44 17 -586 17 -455 0 -581 -3 -584 -12z"/>
<path d="M11980 10500 l0 -3501 1553 4 c1725 4 1620 0 1902 72 668 171 1216
670 1413 1285 54 170 74 295 79 512 16 604 -104 1137 -331 1478 -170 254 -351
386 -655 476 -7 2 19 21 59 42 375 194 595 654 594 1242 -1 540 -170 967 -524
1320 -284 284 -665 468 -1119 542 -135 22 -149 22 -1553 25 l-1418 4 0 -3501z
m2647 2301 c240 -50 434 -185 521 -363 57 -116 76 -218 69 -372 -8 -194 -65
-337 -185 -467 -114 -123 -239 -198 -402 -241 -84 -23 -94 -23 -680 -23 l-595
0 -3 743 -2 742 592 0 c543 0 601 -2 685 -19z m312 -2639 c171 -45 321 -133
458 -265 99 -96 169 -195 228 -320 68 -145 80 -206 80 -392 -1 -190 -20 -286
-89 -431 -135 -284 -355 -470 -652 -551 l-99 -27 -755 -1 -755 0 -3 1008 -2
1008 752 -4 c740 -3 754 -3 837 -25z"/>
</g>
</svg>
